<svg width="150" height="187" viewBox="0 0 150 187" fill="none" xmlns="http://www.w3.org/2000/svg">
<g clip-path="url(#clip0_45_162)">
<path d="M149.183 172.099C149.084 171.797 148.337 171.93 148.265 171.66C148.194 171.391 148.911 171.165 149.461 170.407C149.56 170.271 150.185 169.409 149.946 169.047C149.491 168.36 146.329 170.071 145.57 169.111C145.404 168.9 145.335 168.539 144.839 167.866C144.642 167.598 144.515 167.469 144.364 167.472C144.149 167.478 144.072 167.747 143.735 168.233C143.228 168.963 143.046 168.871 142.712 169.469C142.465 169.913 142.436 170.196 142.257 170.213C142.005 170.237 141.9 169.684 141.592 169.663C141.277 169.641 140.962 170.187 140.805 170.614C140.512 171.414 140.694 172.026 140.734 172.636C140.778 173.298 140.675 174.269 139.955 175.514L133.163 186.334C134.622 184.128 138.762 178.113 140.43 175.907C140.912 175.27 141.429 174.63 142.226 174.51C142.993 174.394 143.926 174.773 145.228 174.751C145.38 174.749 145.804 174.736 145.906 174.512C145.992 174.326 145.78 174.165 145.857 173.991C145.96 173.757 146.424 173.857 147.057 173.702C147.502 173.592 147.805 173.411 148.066 173.256C148.144 173.209 149.314 172.5 149.183 172.099Z" fill="#F2F2F2"/>
<path d="M131.395 174.625C131.218 174.586 131.068 174.992 130.915 174.949C130.762 174.906 130.858 174.489 130.645 174.001C130.606 173.913 130.364 173.357 130.117 173.37C129.649 173.395 129.576 175.441 128.886 175.536C128.735 175.557 128.537 175.487 128.064 175.536C127.875 175.556 127.776 175.58 127.734 175.656C127.674 175.763 127.784 175.878 127.926 176.184C128.138 176.643 128.04 176.706 128.237 177.042C128.384 177.292 128.514 177.388 128.471 177.48C128.41 177.611 128.109 177.503 128.009 177.648C127.907 177.796 128.084 178.109 128.249 178.308C128.557 178.683 128.91 178.771 129.221 178.927C129.559 179.097 130.005 179.427 130.408 180.14L133.76 186.595C133.098 185.243 131.34 181.475 130.738 180.02C130.565 179.6 130.4 179.161 130.571 178.735C130.735 178.326 131.191 177.977 131.556 177.332C131.598 177.256 131.714 177.045 131.634 176.93C131.567 176.834 131.427 176.891 131.364 176.803C131.279 176.685 131.462 176.487 131.568 176.131C131.643 175.881 131.642 175.68 131.64 175.507C131.64 175.455 131.63 174.677 131.395 174.625Z" fill="#F2F2F2"/>
<path d="M134.738 176.2L134.843 175.227L134.908 175.166C135.207 174.884 135.394 174.585 135.464 174.276C135.475 174.228 135.484 174.178 135.493 174.128C135.528 173.928 135.571 173.679 135.763 173.421C135.871 173.277 136.156 172.952 136.449 173.065C136.528 173.095 136.582 173.146 136.619 173.201C136.628 173.191 136.638 173.182 136.648 173.172C136.775 173.049 136.864 173.003 136.949 172.96C137.015 172.927 137.083 172.892 137.197 172.8C137.248 172.76 137.288 172.724 137.322 172.693C137.425 172.602 137.557 172.494 137.737 172.536C137.928 172.589 137.994 172.771 138.037 172.892C138.115 173.108 138.139 173.256 138.155 173.354C138.161 173.39 138.167 173.43 138.172 173.443C138.214 173.549 138.74 173.576 138.938 173.588C139.382 173.612 139.767 173.633 139.859 173.937C139.926 174.155 139.787 174.392 139.436 174.662C139.327 174.746 139.218 174.803 139.122 174.847C139.181 174.902 139.228 174.977 139.23 175.08C139.237 175.323 138.988 175.509 138.49 175.635C138.366 175.666 138.2 175.708 137.982 175.698C137.88 175.693 137.79 175.677 137.713 175.662C137.702 175.706 137.681 175.751 137.643 175.794C137.533 175.921 137.354 175.953 137.111 175.882C136.843 175.807 136.631 175.705 136.444 175.616C136.281 175.538 136.14 175.472 136.022 175.454C135.802 175.423 135.598 175.559 135.352 175.739L134.738 176.2Z" fill="#F2F2F2"/>
<path d="M136.491 170.661L135.524 170.806L135.448 170.759C135.099 170.541 134.762 170.436 134.447 170.446C134.396 170.448 134.346 170.452 134.295 170.456C134.093 170.473 133.841 170.494 133.543 170.374C133.376 170.306 132.99 170.113 133.025 169.801C133.034 169.717 133.07 169.652 133.113 169.602C133.102 169.595 133.09 169.589 133.078 169.581C132.926 169.49 132.86 169.416 132.796 169.344C132.747 169.289 132.697 169.232 132.579 169.144C132.527 169.106 132.482 169.076 132.444 169.051C132.329 168.975 132.191 168.875 132.187 168.689C132.189 168.491 132.349 168.381 132.455 168.308C132.643 168.179 132.781 168.118 132.872 168.078C132.905 168.063 132.942 168.046 132.954 168.038C133.045 167.971 132.938 167.456 132.899 167.261C132.81 166.825 132.732 166.448 133.003 166.281C133.197 166.162 133.462 166.235 133.812 166.507C133.921 166.591 134.004 166.682 134.07 166.763C134.109 166.693 134.17 166.628 134.268 166.6C134.502 166.532 134.745 166.725 134.993 167.175C135.055 167.287 135.137 167.437 135.182 167.65C135.204 167.751 135.211 167.841 135.216 167.919C135.261 167.919 135.311 167.928 135.362 167.953C135.513 168.028 135.589 168.193 135.582 168.446C135.577 168.725 135.533 168.955 135.494 169.159C135.46 169.336 135.431 169.489 135.444 169.608C135.47 169.828 135.653 169.992 135.89 170.183L136.491 170.661Z" fill="#F2F2F2"/>
<path d="M136.622 167.755L136.727 166.783L136.792 166.722C137.091 166.439 137.278 166.14 137.348 165.832C137.359 165.783 137.367 165.733 137.376 165.683C137.411 165.483 137.455 165.234 137.647 164.976C137.755 164.832 138.039 164.507 138.333 164.621C138.412 164.651 138.465 164.702 138.503 164.756C138.512 164.747 138.521 164.737 138.532 164.727C138.658 164.604 138.747 164.559 138.833 164.515C138.898 164.482 138.966 164.448 139.081 164.356C139.131 164.316 139.171 164.279 139.205 164.249C139.308 164.157 139.44 164.049 139.621 164.092C139.812 164.144 139.878 164.327 139.921 164.447C139.999 164.663 140.023 164.811 140.039 164.909C140.044 164.945 140.051 164.986 140.056 164.999C140.098 165.104 140.623 165.132 140.821 165.143C141.266 165.167 141.65 165.188 141.743 165.492C141.809 165.71 141.671 165.948 141.32 166.217C141.21 166.301 141.101 166.359 141.006 166.402C141.064 166.457 141.111 166.533 141.114 166.635C141.12 166.878 140.871 167.065 140.374 167.19C140.25 167.222 140.084 167.264 139.866 167.253C139.763 167.248 139.674 167.232 139.597 167.218C139.586 167.261 139.565 167.307 139.527 167.35C139.416 167.476 139.237 167.509 138.994 167.437C138.726 167.362 138.515 167.261 138.328 167.172C138.164 167.094 138.024 167.027 137.906 167.009C137.686 166.978 137.481 167.114 137.236 167.295L136.622 167.755Z" fill="#F2F2F2"/>
<path d="M133.485 186.39L133.313 186.221L133.076 186.195C133.077 186.173 133.075 186.121 133.074 186.039C133.064 185.592 133.036 184.23 133.226 182.138C133.358 180.678 133.579 179.195 133.883 177.731C134.188 176.265 134.504 175.174 134.757 174.297C134.949 173.635 135.142 173.008 135.331 172.397C135.835 170.764 136.31 169.222 136.604 167.463C136.67 167.071 136.807 166.253 136.527 165.289C136.364 164.729 136.086 164.202 135.699 163.724L136.074 163.421C136.5 163.95 136.808 164.534 136.989 165.155C137.299 166.225 137.15 167.115 137.079 167.543C136.779 169.333 136.299 170.89 135.79 172.538C135.602 173.147 135.41 173.772 135.219 174.431C134.968 175.299 134.654 176.381 134.354 177.828C134.053 179.275 133.835 180.739 133.704 182.181C133.517 184.247 133.545 185.588 133.554 186.029C133.559 186.264 133.56 186.314 133.485 186.39Z" fill="#F2F2F2"/>
<path d="M134.673 164.277C134.654 164.273 134.634 164.268 134.615 164.262C134.22 164.152 133.903 163.83 133.673 163.306C133.566 163.06 133.54 162.801 133.49 162.284C133.482 162.205 133.447 161.802 133.49 161.267C133.518 160.918 133.555 160.778 133.651 160.668C133.756 160.545 133.898 160.475 134.048 160.439C134.052 160.393 134.068 160.348 134.098 160.305C134.221 160.127 134.428 160.2 134.54 160.239C134.597 160.259 134.667 160.285 134.747 160.298C134.871 160.32 134.946 160.298 135.058 160.265C135.166 160.234 135.3 160.195 135.485 160.198C135.85 160.203 136.121 160.367 136.21 160.421C136.68 160.704 136.842 161.154 137.03 161.675C137.067 161.78 137.191 162.158 137.219 162.644C137.24 162.995 137.194 163.138 137.141 163.241C137.034 163.452 136.869 163.55 136.46 163.756C136.032 163.972 135.817 164.08 135.642 164.135C135.232 164.264 134.975 164.345 134.673 164.277Z" fill="#F2F2F2"/>
<path d="M25.0003 172.099C24.9017 171.797 24.1542 171.93 24.0824 171.66C24.0109 171.391 24.7282 171.165 25.2783 170.407C25.3775 170.271 26.0026 169.409 25.7628 169.047C25.3084 168.36 22.1464 170.071 21.3875 169.111C21.2209 168.9 21.1524 168.539 20.6562 167.866C20.4588 167.598 20.3321 167.469 20.1808 167.472C19.9661 167.478 19.8893 167.747 19.5518 168.233C19.0457 168.963 18.8631 168.871 18.5297 169.469C18.2822 169.913 18.2529 170.196 18.0744 170.213C17.8218 170.237 17.7175 169.684 17.4089 169.663C17.0939 169.641 16.7788 170.187 16.6226 170.614C16.3295 171.414 16.511 172.026 16.5512 172.636C16.595 173.298 16.4923 174.269 15.7722 175.514L8.98071 186.334C10.4393 184.128 14.5795 178.113 16.2476 175.907C16.7292 175.27 17.2467 174.63 18.0431 174.51C18.81 174.394 19.743 174.773 21.0454 174.751C21.1975 174.749 21.6208 174.736 21.7237 174.512C21.8088 174.326 21.5975 174.165 21.6744 173.991C21.7775 173.757 22.2415 173.857 22.8738 173.702C23.3197 173.592 23.6226 173.411 23.8831 173.256C23.9616 173.209 25.1316 172.5 25.0003 172.099Z" fill="#F2F2F2"/>
<path d="M7.21204 174.625C7.03547 174.586 6.88502 174.992 6.73183 174.949C6.57919 174.906 6.67545 174.489 6.46217 174.001C6.42371 173.913 6.18133 173.357 5.93433 173.37C5.46618 173.395 5.39328 175.441 4.70323 175.536C4.5518 175.557 4.35454 175.487 3.88109 175.536C3.69274 175.556 3.59277 175.58 3.55098 175.656C3.4917 175.763 3.60136 175.878 3.7428 176.184C3.95492 176.643 3.85726 176.706 4.0545 177.042C4.20093 177.292 4.33166 177.388 4.28836 177.48C4.22711 177.611 3.92578 177.503 3.82622 177.648C3.72462 177.796 3.90169 178.109 4.06599 178.308C4.37431 178.683 4.727 178.771 5.03791 178.927C5.37578 179.097 5.82227 179.427 6.22562 180.14L9.57685 186.595C8.91504 185.243 7.15734 181.475 6.55573 180.02C6.38205 179.6 6.21746 179.161 6.38822 178.735C6.55262 178.326 7.00804 177.977 7.37297 177.332C7.41559 177.256 7.53155 177.045 7.45115 176.93C7.38468 176.834 7.24454 176.891 7.18116 176.803C7.09613 176.685 7.27925 176.487 7.38546 176.131C7.46036 175.881 7.45894 175.68 7.45773 175.507C7.45736 175.455 7.44709 174.677 7.21204 174.625Z" fill="#F2F2F2"/>
<path d="M10.5554 176.2L10.6608 175.227L10.7254 175.166C11.0243 174.884 11.2113 174.585 11.2814 174.276C11.2926 174.228 11.3012 174.178 11.3101 174.128C11.345 173.928 11.3885 173.679 11.5807 173.421C11.6883 173.277 11.9729 172.952 12.2665 173.065C12.3457 173.095 12.3992 173.146 12.4363 173.201C12.4456 173.191 12.4552 173.182 12.4654 173.172C12.5922 173.049 12.6809 173.003 12.7664 172.96C12.832 172.927 12.8998 172.892 13.0145 172.8C13.0649 172.76 13.1052 172.724 13.1391 172.693C13.2421 172.602 13.3739 172.494 13.5543 172.536C13.7456 172.589 13.8112 172.771 13.8547 172.892C13.9325 173.108 13.9564 173.256 13.9722 173.354C13.9779 173.39 13.9845 173.43 13.9895 173.443C14.0314 173.549 14.557 173.576 14.7548 173.588C15.1993 173.612 15.584 173.633 15.6765 173.937C15.7429 174.155 15.6045 174.392 15.2535 174.662C15.1441 174.746 15.0348 174.803 14.9395 174.847C14.9981 174.902 15.0448 174.977 15.0477 175.08C15.0541 175.323 14.805 175.509 14.3073 175.635C14.1837 175.666 14.0173 175.708 13.7996 175.698C13.6971 175.693 13.6073 175.677 13.5308 175.662C13.5193 175.706 13.4984 175.751 13.4607 175.794C13.3499 175.921 13.171 175.953 12.9282 175.882C12.6601 175.807 12.4483 175.705 12.2615 175.616C12.0982 175.538 11.9575 175.472 11.8393 175.454C11.6197 175.423 11.4148 175.559 11.1697 175.739L10.5554 176.2Z" fill="#F2F2F2"/>
<path d="M12.3085 170.661L11.341 170.806L11.2655 170.759C10.9165 170.541 10.5795 170.436 10.2638 170.446C10.2136 170.448 10.1635 170.452 10.1124 170.456C9.91015 170.473 9.65868 170.494 9.36017 170.374C9.19372 170.306 8.80704 170.113 8.84244 169.801C8.85107 169.717 8.88719 169.652 8.93044 169.602C8.91892 169.595 8.90739 169.589 8.89491 169.581C8.74356 169.49 8.6774 169.416 8.61368 169.344C8.56467 169.289 8.51418 169.232 8.39632 169.144C8.34463 169.106 8.29937 169.076 8.26133 169.051C8.14624 168.975 8.00866 168.875 8.00415 168.689C8.00621 168.491 8.16608 168.381 8.2719 168.308C8.46062 168.179 8.59788 168.118 8.68893 168.078C8.72221 168.063 8.75964 168.046 8.77109 168.038C8.86254 167.971 8.75562 167.456 8.71649 167.261C8.62707 166.825 8.54968 166.448 8.82066 166.281C9.01447 166.162 9.2793 166.235 9.62896 166.507C9.73778 166.591 9.82148 166.682 9.88743 166.763C9.92615 166.693 9.98718 166.628 10.0857 166.6C10.319 166.532 10.5624 166.725 10.8102 167.175C10.8721 167.287 10.9547 167.437 10.9997 167.65C11.0208 167.751 11.0284 167.841 11.0336 167.919C11.0787 167.919 11.1279 167.928 11.1791 167.953C11.3299 168.028 11.4064 168.193 11.3989 168.446C11.3946 168.725 11.3501 168.955 11.3111 169.159C11.2773 169.336 11.2486 169.489 11.261 169.608C11.287 169.828 11.4702 169.992 11.707 170.183L12.3085 170.661Z" fill="#F2F2F2"/>
<path d="M12.439 167.755L12.5443 166.783L12.6089 166.722C12.9078 166.439 13.0948 166.14 13.165 165.832C13.1761 165.783 13.1848 165.733 13.1936 165.683C13.2286 165.483 13.272 165.234 13.4643 164.976C13.5719 164.832 13.8565 164.507 14.15 164.621C14.2292 164.651 14.2827 164.702 14.3199 164.756C14.3292 164.747 14.3387 164.737 14.349 164.727C14.4758 164.604 14.5645 164.559 14.6499 164.515C14.7156 164.482 14.7834 164.448 14.8981 164.356C14.9484 164.316 14.9887 164.279 15.0227 164.249C15.1257 164.157 15.2574 164.049 15.4379 164.092C15.6292 164.144 15.6948 164.327 15.7383 164.447C15.816 164.663 15.8399 164.811 15.8558 164.909C15.8615 164.945 15.8681 164.986 15.8731 164.999C15.915 165.104 16.4406 165.132 16.6383 165.143C17.0829 165.167 17.4675 165.188 17.5601 165.492C17.6264 165.71 17.4881 165.948 17.137 166.217C17.0277 166.301 16.9183 166.359 16.8231 166.402C16.8817 166.457 16.9283 166.533 16.9312 166.635C16.9376 166.878 16.6885 167.065 16.1909 167.19C16.0672 167.222 15.9009 167.264 15.6832 167.253C15.5807 167.248 15.4909 167.232 15.4143 167.218C15.4029 167.261 15.3819 167.307 15.3442 167.35C15.2334 167.476 15.0546 167.509 14.8118 167.437C14.5437 167.362 14.3319 167.261 14.145 167.172C13.9818 167.094 13.841 167.027 13.7229 167.009C13.5032 166.978 13.2984 167.114 13.0532 167.295L12.439 167.755Z" fill="#F2F2F2"/>
<path d="M9.30178 186.39L9.13074 186.221L8.89298 186.195C8.89412 186.173 8.89256 186.121 8.89082 186.039C8.88167 185.592 8.85328 184.23 9.04288 182.138C9.17528 180.678 9.39651 179.195 9.70045 177.731C10.0049 176.265 10.3209 175.174 10.5746 174.297C10.7662 173.635 10.9595 173.008 11.1482 172.397C11.6518 170.764 12.1273 169.222 12.4217 167.463C12.4877 167.071 12.6245 166.253 12.3443 165.289C12.1818 164.729 11.9034 164.202 11.5167 163.724L11.891 163.421C12.3177 163.95 12.6255 164.534 12.806 165.155C13.1167 166.225 12.9676 167.115 12.8959 167.543C12.5962 169.333 12.116 170.89 11.6074 172.538C11.4197 173.147 11.227 173.772 11.0363 174.431C10.7848 175.299 10.4717 176.381 10.1712 177.828C9.87073 179.275 9.65233 180.739 9.5214 182.181C9.33431 184.247 9.36241 185.588 9.37162 186.029C9.37637 186.264 9.3774 186.314 9.30178 186.39Z" fill="#F2F2F2"/>
<path d="M10.4901 164.277C10.4708 164.273 10.4514 164.268 10.4321 164.262C10.0373 164.152 9.72073 163.83 9.49075 163.306C9.3831 163.06 9.35769 162.801 9.30703 162.284C9.29907 162.205 9.26394 161.802 9.30713 161.267C9.33523 160.918 9.37276 160.778 9.46777 160.668C9.57329 160.545 9.71545 160.475 9.86568 160.439C9.86974 160.393 9.88486 160.348 9.91486 160.305C10.0384 160.127 10.2453 160.2 10.3575 160.239C10.4141 160.259 10.4846 160.285 10.5638 160.298C10.6884 160.32 10.7628 160.298 10.8754 160.265C10.9831 160.234 11.1171 160.195 11.3022 160.198C11.6676 160.203 11.938 160.367 12.0272 160.421C12.4969 160.704 12.6591 161.154 12.8468 161.675C12.8841 161.78 13.0078 162.158 13.0366 162.644C13.0574 162.995 13.0115 163.138 12.9587 163.241C12.851 163.452 12.6861 163.55 12.2768 163.756C11.8492 163.972 11.6347 164.08 11.4588 164.135C11.0495 164.264 10.7924 164.345 10.4901 164.277Z" fill="#F2F2F2"/>
<path d="M114.912 0H37.9656C32.717 0 28.4625 4.25452 28.4625 9.50305V176.562C28.4625 181.811 32.717 186.065 37.9656 186.065H114.912C120.16 186.065 124.415 181.811 124.415 176.562V9.50305C124.415 4.25452 120.16 0 114.912 0ZM111.693 172.135C111.693 176.028 108.535 179.182 104.643 179.182H49.0696C45.1771 179.182 42.0224 176.028 42.0224 172.135V23.9428C42.0224 20.0502 45.1771 16.8955 49.0696 16.8955H104.643C108.535 16.8955 111.693 20.0502 111.693 23.9428V172.135Z" fill="#E6E6E6"/>
<path d="M108.354 90.7384C109.737 90.7384 110.857 89.6177 110.857 88.2353C110.857 86.8529 109.737 85.7322 108.354 85.7322C106.972 85.7322 105.851 86.8529 105.851 88.2353C105.851 89.6177 106.972 90.7384 108.354 90.7384Z" fill="#E6E6E6"/>
<path d="M108.414 100.5C109.796 100.5 110.917 99.3797 110.917 97.9973C110.917 96.6148 109.796 95.4941 108.414 95.4941C107.031 95.4941 105.911 96.6148 105.911 97.9973C105.911 99.3797 107.031 100.5 108.414 100.5Z" fill="#E6E6E6"/>
<path d="M67.2098 26.1787H53.9618C51.9793 26.1787 50.3644 27.7909 50.3644 29.7733V116.448C50.3644 118.433 51.9793 120.045 53.9618 120.045H67.2098C67.8725 120.045 68.4934 119.864 69.028 119.552C69.6795 119.171 70.1974 118.589 70.5037 117.893C70.6986 117.45 70.8072 116.963 70.8072 116.448V29.7733C70.8072 27.7909 69.1951 26.1787 67.2098 26.1787ZM69.9719 116.448C69.9719 117.194 69.674 117.874 69.1867 118.372L69.1839 118.375C69.1338 118.428 69.0837 118.478 69.028 118.525C68.5407 118.951 67.9059 119.21 67.2098 119.21H53.9618C52.4387 119.21 51.1997 117.971 51.1997 116.448V29.7733C51.1997 28.2503 52.4387 27.0112 53.9618 27.0112H67.2098C68.7328 27.0112 69.9719 28.2503 69.9719 29.7733L69.9719 116.448Z" fill="#E6E6E6"/>
<path d="M98.9181 26.1787H85.6673C83.6849 26.1787 82.0699 27.7909 82.0699 29.7733V116.448C82.0699 118.433 83.6849 120.045 85.6673 120.045H98.9181C100.901 120.045 102.513 118.433 102.513 116.448V29.7733C102.513 27.7909 100.901 26.1787 98.9181 26.1787ZM101.68 116.448C101.68 117.971 100.441 119.21 98.9181 119.21H85.6673C84.1443 119.21 82.9053 117.971 82.9053 116.448V29.7733C82.9053 28.2503 84.1443 27.0112 85.6673 27.0112H98.9181C100.441 27.0112 101.68 28.2503 101.68 29.7733V116.448Z" fill="#E6E6E6"/>
<path d="M61.5937 132.519L57.8766 132.502V132.979H68.6716C68.7913 132.979 68.9111 132.987 69.028 133.001V132.555L61.5937 132.519ZM70.3534 132.561C69.9524 132.347 69.5041 132.207 69.028 132.163C68.9111 132.149 68.7913 132.143 68.6716 132.143H55.4208C54.875 132.143 54.3599 132.266 53.8977 132.483C52.6754 133.059 51.8262 134.304 51.8262 135.741V164.425C51.8262 166.408 53.4383 168.023 55.4208 168.023H68.6716C68.7913 168.023 68.9111 168.017 69.028 168.003C70.8434 167.825 72.2662 166.288 72.2662 164.425V135.741C72.2662 134.365 71.4894 133.168 70.3534 132.561ZM71.4337 164.425C71.4337 165.829 70.384 166.99 69.028 167.165C68.9111 167.179 68.7913 167.187 68.6716 167.187H55.4208C53.8977 167.187 52.6587 165.948 52.6587 164.425V135.741C52.6587 134.218 53.8977 132.979 55.4208 132.979H68.6716C68.7913 132.979 68.9111 132.987 69.028 133.001C70.384 133.176 71.4337 134.337 71.4337 135.741V164.425ZM68.6716 132.143H61.5937V132.979H68.6716C68.7913 132.979 68.9111 132.987 69.028 133.001V132.163C68.9111 132.149 68.7913 132.143 68.6716 132.143Z" fill="#E6E6E6"/>
<path d="M87.363 132.642V132.979H92.9902V132.67L87.363 132.642ZM102.315 132.711C101.867 132.425 101.349 132.232 100.795 132.168C100.658 132.152 100.519 132.143 100.377 132.143H87.1263C86.4665 132.143 85.8511 132.321 85.3193 132.633C84.2501 133.257 83.5317 134.418 83.5317 135.741V164.425C83.5317 166.408 85.1439 168.023 87.1263 168.023H100.377C102.36 168.023 103.975 166.408 103.975 164.425V135.741C103.975 134.471 103.312 133.352 102.315 132.711ZM103.139 164.425C103.139 165.948 101.9 167.187 100.377 167.187H87.1263C85.6033 167.187 84.367 165.948 84.367 164.425V135.741C84.367 134.218 85.6033 132.979 87.1263 132.979H100.377C101.9 132.979 103.139 134.218 103.139 135.741V164.425Z" fill="#E6E6E6"/>
<path d="M92.123 117.703C92.8638 119.509 94.3961 120.591 95.5453 120.119C96.6944 119.647 97.0252 117.801 96.2838 115.995C95.9975 115.269 95.5417 114.623 94.9543 114.11L91.7187 106.498L88.1791 108.092L91.7447 115.427C91.6871 116.205 91.8169 116.986 92.123 117.703Z" fill="#FFB6B6"/>
<path d="M84.4752 69.7738L86.3304 69.0317C88.5139 72.4283 89.7151 76.3628 89.801 80.3998L90.0406 91.6643L95.235 110.958L89.2986 113.184L81.8781 89.0671L84.4752 69.7738Z" fill="#2F2E41"/>
<path d="M88.3021 123.605C88.0687 123.605 87.832 123.57 87.5994 123.497L81.2859 121.525C80.5554 121.296 79.9997 120.748 79.7614 120.021C79.5231 119.294 79.6468 118.523 80.1006 117.907L97.7294 93.9725C98.1592 93.3889 98.8213 93.0425 99.5458 93.0221C100.275 93.0002 100.951 93.3102 101.413 93.8687L105.006 98.2115C105.67 99.0145 105.72 100.174 105.128 101.031L90.2194 122.595C89.773 123.241 89.0541 123.605 88.3021 123.605Z" fill="#6C63FF"/>
<path d="M102.428 102.105C102.353 102.105 102.279 102.075 102.224 102.016L98.4245 97.9208C98.3198 97.808 98.3265 97.6319 98.4392 97.5273C98.5517 97.4228 98.7282 97.429 98.8326 97.542L102.632 101.638C102.737 101.75 102.73 101.926 102.617 102.031C102.564 102.081 102.496 102.105 102.428 102.105Z" fill="white"/>
<path d="M100.757 104.611C100.683 104.611 100.608 104.581 100.553 104.522L96.7539 100.427C96.6493 100.314 96.6559 100.138 96.7686 100.033C96.8813 99.9286 97.0575 99.9349 97.1621 100.048L100.961 104.143C101.066 104.256 101.06 104.432 100.947 104.537C100.893 104.587 100.825 104.611 100.757 104.611Z" fill="white"/>
<path d="M98.8083 107.396C98.7336 107.396 98.659 107.366 98.6043 107.306L94.8048 103.211C94.7002 103.098 94.7068 102.922 94.8195 102.817C94.9322 102.713 95.1084 102.719 95.213 102.832L99.0124 106.928C99.1171 107.041 99.1104 107.217 98.9977 107.321C98.9441 107.371 98.8762 107.396 98.8083 107.396Z" fill="white"/>
<path d="M96.8592 109.901C96.7845 109.901 96.71 109.872 96.6552 109.812L92.8557 105.717C92.7511 105.604 92.7577 105.428 92.8704 105.323C92.983 105.219 93.1593 105.225 93.2639 105.338L97.0633 109.434C97.168 109.546 97.1613 109.723 97.0486 109.827C96.9951 109.877 96.9271 109.901 96.8592 109.901Z" fill="white"/>
<path d="M94.9101 112.407C94.8354 112.407 94.7609 112.378 94.7061 112.318L90.9067 108.223C90.802 108.11 90.8086 107.934 90.9213 107.829C91.0339 107.725 91.2102 107.731 91.3148 107.844L95.1142 111.94C95.2189 112.052 95.2122 112.229 95.0995 112.333C95.046 112.383 94.978 112.407 94.9101 112.407Z" fill="white"/>
<path d="M92.6827 114.635C92.6079 114.635 92.5334 114.605 92.4786 114.546L88.6792 110.45C88.5745 110.338 88.5812 110.162 88.6939 110.057C88.8065 109.952 88.983 109.959 89.0874 110.072L92.8868 114.167C92.9915 114.28 92.9848 114.456 92.8721 114.561C92.8185 114.611 92.7506 114.635 92.6827 114.635Z" fill="white"/>
<path d="M79.7758 183.781L83.9884 182.51L81.0926 165.657L74.8752 167.532L79.7758 183.781Z" fill="#FFB6B6"/>
<path d="M94.1801 179.333C94.3779 179.515 94.6621 180.207 94.7396 180.464C94.9777 181.253 94.5306 182.087 93.7409 182.325L80.6947 186.259C80.156 186.421 79.5876 186.116 79.4252 185.577L79.2614 185.034C79.2614 185.034 78.1238 183.596 78.8458 181.184C78.8458 181.184 80.9723 182.261 82.6958 179.049L83.026 177.512L89.4552 179.776L92.4832 179.255C93.1457 179.141 93.6847 178.879 94.1801 179.333Z" fill="#2F2E41"/>
<path d="M61.842 174.979L65.1872 177.838L77.8048 166.295L72.8677 162.077L61.842 174.979Z" fill="#FFB6B6"/>
<path d="M73.367 184.697C73.3212 184.962 72.8923 185.575 72.718 185.779C72.1822 186.406 71.2395 186.48 70.6125 185.944L60.2536 177.091C59.8259 176.725 59.7755 176.082 60.1411 175.655L60.5096 175.223C60.5096 175.223 61.1049 173.489 63.5253 172.793C63.5253 172.793 63.7675 175.165 67.4013 174.88L68.8737 174.327L70.442 180.96L72.5164 183.227C72.9703 183.723 73.4816 184.035 73.367 184.697Z" fill="#2F2E41"/>
<path d="M78.8404 61.6027C82.7285 61.6027 85.8804 58.4508 85.8804 54.5627C85.8804 50.6746 82.7285 47.5227 78.8404 47.5227C74.9523 47.5227 71.8004 50.6746 71.8004 54.5627C71.8004 58.4508 74.9523 61.6027 78.8404 61.6027Z" fill="#FFB6B6"/>
<path d="M73.1589 61.4258L82.4345 64.394L83.5476 67.7332L83.1766 80.3481L70.9327 65.8781L73.1589 61.4258Z" fill="#6C63FF"/>
<path d="M89.6696 69.0318L82.8044 65.5035V77.8122L72.2755 63.1926L70.0052 65.507L60.3585 72L66.666 90.9223V100.198L61.4716 115.039L79.6519 125.057L91.8957 118.007L88.1855 92.0354L90.7827 72.371L89.6696 69.0318Z" fill="#2F2E41"/>
<path d="M87.0724 116.894L94.493 144.721L72.2314 173.29L66.666 167.725L82.8056 142.68L68.5211 115.41L87.0724 116.894Z" fill="#2F2E41"/>
<path d="M64.0688 114.297L71.8604 144.721L76.1272 174.361L84.5819 173.29L81.8781 141.011L77.0548 113.555L64.0688 114.297Z" fill="#2F2E41"/>
<path d="M77.2402 59.9417V56.3892L79.4663 53.2632L78.7243 51.8317L78.3533 50.0087C78.3533 50.0087 83.1766 51.9748 85.0317 51.6914C86.8869 51.4081 85.7738 51.3146 86.3303 50.9903C86.8869 50.666 87.9999 49.1761 86.3303 47.6949C84.6607 46.2137 85.9549 45.8427 82.5251 46.2137C79.0953 46.5847 74.643 46.5847 73.9009 47.6978C73.1589 48.8109 73.1589 49.5529 73.1589 49.5529C73.1589 49.5529 68.7066 49.924 72.0458 58.0865L73.9009 62.1678L74.643 60.6837C74.643 60.6837 73.9009 56.6024 75.014 58.0865C76.1271 59.5706 77.2402 59.9417 77.2402 59.9417Z" fill="#2F2E41"/>
<path d="M84.7374 78.4849L80.73 69.4155C80.665 69.2683 80.6649 69.0994 80.7297 68.9521C80.7947 68.8048 80.9194 68.6908 81.0721 68.6394L88.5393 66.1278C88.6902 66.0769 88.8569 66.0915 88.9966 66.1676C89.1364 66.2436 89.2392 66.3756 89.2785 66.5297L91.7388 76.1599C91.8132 76.4513 91.6479 76.7532 91.3622 76.8472L85.4422 78.7982C85.3821 78.8179 85.3211 78.8274 85.2611 78.8274C85.0395 78.8274 84.8318 78.6985 84.7374 78.4849Z" fill="#F2F2F2"/>
<path d="M80.3914 68.5523C80.4891 68.5003 80.6203 68.4319 80.7788 68.3517C80.7019 68.2878 80.6449 68.1985 80.6236 68.0918L80.4754 67.351C80.437 67.1587 80.5255 66.9636 80.6959 66.8666C81.7113 66.2889 85.2459 64.406 87.9974 64.5204C88.1696 64.5275 88.3218 64.6346 88.391 64.7924L88.7092 65.5179C88.7485 65.6076 88.7562 65.7024 88.7382 65.7909C88.9525 65.7647 89.1673 65.7417 89.3827 65.7243C89.5176 65.7135 89.6461 65.7845 89.7109 65.9033L89.8735 66.2014C89.9767 66.3906 89.883 66.627 89.6783 66.6942L80.7244 69.631C80.5207 69.6979 80.306 69.5645 80.2757 69.3522L80.2119 68.9056C80.1913 68.7617 80.2631 68.6206 80.3914 68.5523Z" fill="#3F3D56"/>
<path d="M85.6651 75.3669C87.1436 74.0924 87.6843 72.2966 86.8731 71.3558C86.0619 70.4151 84.2061 70.6858 82.7274 71.9609C82.1297 72.4621 81.6607 73.0992 81.3597 73.8189L75.1638 79.2979L77.7969 82.1506L83.6254 76.4464C84.3818 76.2546 85.0812 75.8845 85.6651 75.3669Z" fill="#FFB6B6"/>
<path d="M71.3453 99.5072L69.9298 119.17C69.8432 120.373 68.9239 121.348 67.7287 121.513C61.9062 122.314 55.4551 121.503 48.511 119.428C47.3148 119.07 46.5645 117.884 46.7342 116.648L49.4087 97.1576C49.5586 96.0653 50.3939 95.1904 51.4791 94.9959C57.1303 93.9835 63.2347 94.9613 69.5557 96.89C70.689 97.2358 71.4304 98.3253 71.3453 99.5072Z" fill="#6C63FF"/>
<path d="M62.9341 87.3156C65.9271 87.4428 66.7536 94.6462 66.8205 97.4106L67.5622 97.3927C67.5517 96.9587 67.2557 86.7602 62.9658 86.574" fill="#3F3D56"/>
<path d="M64.4398 72.371L60.3585 72L56.7793 89.07C56.0973 92.3226 58.2295 95.4982 61.4982 96.0982L64.4398 96.6382L84.8462 81.2756L80.1213 74.0867L66.2949 82.7598L64.4398 72.371Z" fill="#2F2E41"/>
<path d="M66.6761 81.3797C62.4489 81.1987 55.4089 95.1539 55.2852 95.5424L55.9922 95.768C56.0209 95.678 62.9801 81.9642 66.6444 82.1213" fill="#3F3D56"/>
<path d="M0 186.251C0 186.434 0.257632 186.582 0.578455 186.582H146.415C146.736 186.582 146.994 186.434 146.994 186.251C146.994 186.067 146.736 185.919 146.415 185.919H0.578455C0.257632 185.919 0 186.067 0 186.251Z" fill="#CCCCCC"/>
</g>
<defs>
<clipPath id="clip0_45_162">
<rect width="150" height="186.595" fill="white"/>
</clipPath>
</defs>
</svg>
